<?xml version="1.0" encoding="UTF-8" standalone="no"?>
<!DOCTYPE svg PUBLIC "-//W3C//DTD SVG 1.1//EN"
 "http://www.w3.org/Graphics/SVG/1.1/DTD/svg11.dtd">
<!-- Generated by graphviz version 5.0.0 (20220707.1540)
 -->
<!-- Title: example Pages: 1 -->
<svg width="388pt" height="44pt"
 viewBox="0.00 0.00 388.09 44.00" xmlns="http://www.w3.org/2000/svg" xmlns:xlink="http://www.w3.org/1999/xlink">
<g id="graph0" class="graph" transform="scale(1 1) rotate(0) translate(4 40)">
<title>example</title>
<polygon fill="white" stroke="transparent" points="-4,4 -4,-40 384.09,-40 384.09,4 -4,4"/>
<!-- Service -->
<g id="node1" class="node">
<title>Service</title>
<ellipse fill="none" stroke="black" cx="37.05" cy="-18" rx="37.09" ry="18"/>
<text text-anchor="middle" x="37.05" y="-14.3" font-family="Times,serif" font-size="14.00">Service</text>
</g>
<!-- API -->
<g id="node2" class="node">
<title>API</title>
<ellipse fill="none" stroke="black" cx="190.09" cy="-18" rx="27" ry="18"/>
<text text-anchor="middle" x="190.09" y="-14.3" font-family="Times,serif" font-size="14.00">API</text>
</g>
<!-- Service&#45;&gt;API -->
<g id="edge1" class="edge">
<title>Service&#45;&gt;API</title>
<path fill="none" stroke="black" d="M74.23,-18C97.95,-18 128.85,-18 152.63,-18"/>
<polygon fill="black" stroke="black" points="152.67,-21.5 162.67,-18 152.67,-14.5 152.67,-21.5"/>
<text text-anchor="middle" x="118.59" y="-21.8" font-family="Times,serif" font-size="14.00">GET /test</text>
</g>
<!-- DB -->
<g id="node3" class="node">
<title>DB</title>
<ellipse fill="none" stroke="black" cx="353.09" cy="-18" rx="27" ry="18"/>
<text text-anchor="middle" x="353.09" y="-14.3" font-family="Times,serif" font-size="14.00">DB</text>
</g>
<!-- API&#45;&gt;DB -->
<g id="edge2" class="edge">
<title>API&#45;&gt;DB</title>
<path fill="none" stroke="black" d="M217.32,-18C244.1,-18 285.88,-18 315.83,-18"/>
<polygon fill="black" stroke="black" points="315.88,-21.5 325.88,-18 315.88,-14.5 315.88,-21.5"/>
<text text-anchor="middle" x="271.59" y="-21.8" font-family="Times,serif" font-size="14.00">read/write db</text>
</g>
</g>
</svg>
