<?xml version="1.0" encoding="UTF-8" standalone="no"?>
<!DOCTYPE svg PUBLIC "-//W3C//DTD SVG 1.1//EN"
 "http://www.w3.org/Graphics/SVG/1.1/DTD/svg11.dtd">
<!-- Generated by graphviz version 5.0.0 (20220707.1540)
 -->
<!-- Pages: 1 -->
<svg width="328pt" height="254pt"
 viewBox="0.00 0.00 328.00 254.00" xmlns="http://www.w3.org/2000/svg" xmlns:xlink="http://www.w3.org/1999/xlink">
<g id="graph0" class="graph" transform="scale(1 1) rotate(0) translate(4 250)">
<polygon fill="white" stroke="transparent" points="-4,4 -4,-250 324,-250 324,4 -4,4"/>
<g id="clust1" class="cluster">
<title>cluster_0</title>
<polygon fill="none" stroke="black" points="119,-8 119,-155 190,-155 190,-8 119,-8"/>
<text text-anchor="middle" x="154.5" y="-139.8" font-family="Times,serif" font-size="14.00">API Node</text>
</g>
<g id="clust2" class="cluster">
<title>cluster_1</title>
<polygon fill="none" stroke="black" points="8,-163 8,-238 96,-238 96,-163 8,-163"/>
<text text-anchor="middle" x="52" y="-222.8" font-family="Times,serif" font-size="14.00">Node A</text>
</g>
<g id="clust3" class="cluster">
<title>cluster_2</title>
<polygon fill="none" stroke="black" points="104,-163 104,-238 204,-238 204,-163 104,-163"/>
<text text-anchor="middle" x="154" y="-222.8" font-family="Times,serif" font-size="14.00">Node B</text>
</g>
<g id="clust4" class="cluster">
<title>cluster_3</title>
<polygon fill="none" stroke="black" points="212,-163 212,-238 312,-238 312,-163 212,-163"/>
<text text-anchor="middle" x="262" y="-222.8" font-family="Times,serif" font-size="14.00">Node C</text>
</g>
<!-- API -->
<g id="node1" class="node">
<title>API</title>
<ellipse fill="none" stroke="black" cx="154" cy="-106" rx="27" ry="18"/>
<text text-anchor="middle" x="154" y="-102.3" font-family="Times,serif" font-size="14.00">API</text>
</g>
<!-- DB -->
<g id="node2" class="node">
<title>DB</title>
<ellipse fill="none" stroke="black" cx="154" cy="-34" rx="27" ry="18"/>
<text text-anchor="middle" x="154" y="-30.3" font-family="Times,serif" font-size="14.00">DB</text>
</g>
<!-- API&#45;&gt;DB -->
<g id="edge1" class="edge">
<title>API&#45;&gt;DB</title>
<path fill="none" stroke="black" d="M154,-87.7C154,-79.98 154,-70.71 154,-62.11"/>
<polygon fill="black" stroke="black" points="157.5,-62.1 154,-52.1 150.5,-62.1 157.5,-62.1"/>
</g>
<!-- service -->
<g id="node3" class="node">
<title>service</title>
<ellipse fill="none" stroke="black" cx="52" cy="-189" rx="36" ry="18"/>
<text text-anchor="middle" x="52" y="-185.3" font-family="Times,serif" font-size="14.00">service</text>
</g>
<!-- service&#45;&gt;API -->
<g id="edge2" class="edge">
<title>service&#45;&gt;API</title>
<path fill="none" stroke="black" d="M70.71,-173.14C87.02,-160.19 110.81,-141.29 128.8,-127.01"/>
<polygon fill="black" stroke="black" points="131.45,-129.38 137.1,-120.42 127.1,-123.9 131.45,-129.38"/>
</g>
<!-- service 2 -->
<g id="node4" class="node">
<title>service 2</title>
<ellipse fill="none" stroke="black" cx="154" cy="-189" rx="42.49" ry="18"/>
<text text-anchor="middle" x="154" y="-185.3" font-family="Times,serif" font-size="14.00">service 2</text>
</g>
<!-- service 2&#45;&gt;API -->
<g id="edge3" class="edge">
<title>service 2&#45;&gt;API</title>
<path fill="none" stroke="black" d="M154,-170.82C154,-160.19 154,-146.31 154,-134.2"/>
<polygon fill="black" stroke="black" points="157.5,-134.15 154,-124.15 150.5,-134.15 157.5,-134.15"/>
</g>
<!-- service 3 -->
<g id="node5" class="node">
<title>service 3</title>
<ellipse fill="none" stroke="black" cx="262" cy="-189" rx="42.49" ry="18"/>
<text text-anchor="middle" x="262" y="-185.3" font-family="Times,serif" font-size="14.00">service 3</text>
</g>
<!-- service 3&#45;&gt;API -->
<g id="edge4" class="edge">
<title>service 3&#45;&gt;API</title>
<path fill="none" stroke="black" d="M241.94,-172.95C224.38,-159.78 198.76,-140.57 179.7,-126.27"/>
<polygon fill="black" stroke="black" points="181.56,-123.29 171.46,-120.09 177.36,-128.89 181.56,-123.29"/>
</g>
</g>
</svg>
